<svg version="1.1"
     xmlns="http://www.w3.org/2000/svg" xmlns:xlink="http://www.w3.org/1999/xlink" xmlns:a="http://ns.adobe.com/AdobeSVGViewerExtensions/3.0/"
     x="0px" y="0px" width="600px" height="280px" viewBox="0 0 600 280"
     overflow="visible" xml:space="preserve">
     
<filter id="dropshadow" height="130%">
    <feGaussianBlur in="SourceAlpha" stdDeviation="10"/>
    <feOffset dx="1" dy="1" result="offsetblur"/>
    <feMerge> 
        <feMergeNode/>
        <feMergeNode in="SourceGraphic"/>
    </feMerge>
</filter>

<g fill="white" style="filter:url(#dropshadow)">
    <path d="M189.087,183.946c0,0.408-0.317,0.725-0.726,0.725h-1.452c-0.408,0-0.726-0.316-0.726-0.725v-21.004
        c0-0.408,0.318-0.727,0.726-0.727h1.452c0.363,0,0.726,0.318,0.726,0.727V183.946z
        M215.444,167.433v16.514c0,0.361-0.317,0.725-0.726,0.725h-1.452c-0.408,0-0.726-0.363-0.726-0.725v-16.514
        c0-1.27-1.043-2.312-2.359-2.312c-1.271,0-2.313,1.043-2.313,2.312v16.514c0,0.361-0.318,0.725-0.726,0.725h-1.452
        c-0.408,0-0.726-0.363-0.726-0.725v-16.514c0-1.27-1.043-2.312-2.314-2.312c-1.315,0-2.359,1.043-2.359,2.312v16.514
        c0,0.361-0.317,0.725-0.726,0.725h-1.452c-0.363,0-0.726-0.363-0.726-0.725v-16.514c0-2.857,2.359-5.217,5.262-5.217
        c1.452,0,2.813,0.635,3.766,1.633c0.953-0.998,2.313-1.633,3.765-1.633C213.085,162.216,215.444,164.575,215.444,167.433z 
        M234.227,167.478v16.469c0,0.408-0.318,0.725-0.726,0.725h-1.452c-0.408,0-0.726-0.316-0.726-0.725v-9.027h-4.673v9.027
        c0,0.408-0.317,0.725-0.726,0.725h-1.452c-0.408,0-0.726-0.316-0.726-0.725v-16.469c0-2.857,2.359-5.217,5.262-5.217
        C231.868,162.261,234.227,164.62,234.227,167.478z M231.324,167.478c0-1.27-1.043-2.312-2.314-2.312
        c-1.315,0-2.359,1.043-2.359,2.312v4.537h4.673V167.478z 
        M250.061,169.021v-1.543c0-1.314-1.043-2.312-2.314-2.312c-1.27,0-2.313,0.998-2.313,2.312v12.021
        c0,1.271,1.043,2.314,2.313,2.314c1.271,0,2.314-1.043,2.314-2.314v-4.672h-1.588c-0.408,0-0.726-0.318-0.726-0.68v-1.453
        c0-0.408,0.318-0.725,0.726-0.725h3.765c0.408,0,0.726,0.316,0.726,0.725v6.805c0,2.859-2.359,5.172-5.217,5.172
        c-2.858,0-5.217-2.312-5.217-5.172v-12.021c0-2.902,2.359-5.217,5.217-5.217c2.858,0,5.217,2.314,5.217,5.217v1.543
        c0,0.408-0.318,0.727-0.726,0.727h-1.452C250.378,169.747,250.061,169.429,250.061,169.021z 
        M264.17,165.12v6.85h3.947c0.408,0,0.726,0.316,0.726,0.725v1.453c0,0.408-0.318,0.725-0.726,0.725h-3.947v6.896h3.947
        c0.408,0,0.726,0.316,0.726,0.725v1.453c0,0.408-0.318,0.725-0.726,0.725h-5.398c-0.816,0-1.452-0.68-1.452-1.451v-19.553
        c0-0.816,0.635-1.451,1.452-1.451h5.398c0.408,0,0.726,0.318,0.726,0.727v1.451c0,0.408-0.318,0.727-0.726,0.727H264.17z 
        M282.862,168.976v-1.543c0-1.27-1.043-2.312-2.314-2.312c-1.27,0-2.313,1.043-2.313,2.312c0,0.59,0,0.59,0.136,0.771
        l6.306,8.348c1.089,1.451,1.089,1.451,1.089,2.902c0,2.857-2.359,5.217-5.217,5.217c-2.858,0-5.217-2.359-5.217-5.217v-1.543
        c0-0.408,0.318-0.725,0.726-0.725h1.452c0.408,0,0.726,0.316,0.726,0.725v1.543c0,1.271,1.043,2.314,2.313,2.314
        c1.271,0,2.314-1.043,2.314-2.314c0-0.59,0-0.59-0.136-0.771l-6.306-8.346c-1.089-1.453-1.089-1.453-1.089-2.904
        c0-2.857,2.359-5.217,5.217-5.217c2.858,0,5.217,2.359,5.217,5.217v1.543c0,0.408-0.318,0.725-0.726,0.725h-1.452
        C283.179,169.7,282.862,169.384,282.862,168.976z 
        M318.203,170.427v1.451c0,0.408-0.317,0.727-0.726,0.727h-2.313v11.342c0,0.408-0.363,0.725-0.726,0.725h-4.537
        c-2.858,0-5.217-2.359-5.217-5.262v-4.445c0-1.498,0.59-2.859,1.633-3.811c-1.043-0.953-1.633-2.27-1.633-3.766
        c0-2.904,2.359-5.262,5.217-5.262h1.543c0.408,0,0.726,0.361,0.726,0.725v1.498c0,0.363-0.317,0.725-0.726,0.725h-1.543
        c-1.27,0-2.313,1.045-2.313,2.314s1.044,2.312,2.313,2.312h2.359v-2.312c0-0.408,0.317-0.727,0.726-0.727h1.452
        c0.362,0,0.726,0.318,0.726,0.727v2.312h2.313C317.886,169.7,318.203,170.063,318.203,170.427z M312.261,172.604h-2.359
        c-1.27,0-2.313,1.088-2.313,2.359v4.445c0,1.316,1.044,2.359,2.313,2.359h2.359V172.604z 
        M347.556,162.987v14.107c0,1.045-0.317,2.043-0.861,2.904l-2.45,4.309c-0.136,0.229-0.362,0.363-0.635,0.363h-2.54
        c-0.272,0-0.499-0.135-0.636-0.363l-2.449-4.309c-0.545-0.861-0.862-1.859-0.862-2.904v-14.107c0-0.408,0.317-0.727,0.726-0.727
        h1.452c0.408,0,0.726,0.318,0.726,0.727v14.107c0,0.273,0.046,0.5,0.136,0.727l2.178,3.902l2.223-3.902
        c0.046-0.227,0.091-0.453,0.091-0.727v-14.107c0-0.408,0.363-0.727,0.727-0.727h1.451
        C347.238,162.261,347.556,162.579,347.556,162.987z 
        M358.809,183.946c0,0.408-0.317,0.725-0.726,0.725h-1.452c-0.408,0-0.726-0.316-0.726-0.725v-21.004
        c0-0.408,0.317-0.727,0.726-0.727h1.452c0.363,0,0.726,0.318,0.726,0.727V183.946z 
        M377.59,167.478v11.932c0,2.902-2.313,5.262-5.217,5.262h-3.811c-0.771,0-1.452-0.68-1.452-1.451v-19.553
        c0-0.816,0.681-1.451,1.452-1.451h3.811C375.276,162.216,377.59,164.575,377.59,167.478z M374.687,167.478
        c0-1.314-1.044-2.357-2.313-2.357h-2.359v16.604h2.359c1.27,0,2.313-1.045,2.313-2.314V167.478z 
        M388.796,165.12v6.85h3.947c0.408,0,0.726,0.316,0.726,0.725v1.453c0,0.408-0.317,0.725-0.726,0.725h-3.947v6.896h3.947
        c0.408,0,0.726,0.316,0.726,0.725v1.453c0,0.408-0.317,0.725-0.726,0.725h-5.398c-0.817,0-1.452-0.68-1.452-1.451v-19.553
        c0-0.816,0.635-1.451,1.452-1.451h5.398c0.408,0,0.726,0.318,0.726,0.727v1.451c0,0.408-0.317,0.727-0.726,0.727H388.796z 
        M412.251,167.433v11.977c0,2.902-2.359,5.262-5.217,5.262c-2.903,0-5.263-2.359-5.263-5.262v-11.977
        c0-2.857,2.359-5.217,5.263-5.217C409.892,162.216,412.251,164.575,412.251,167.433z M409.348,167.433
        c0-1.27-1.044-2.312-2.313-2.312c-1.315,0-2.359,1.043-2.359,2.312v11.977c0,1.316,1.044,2.359,2.359,2.359
        c1.27,0,2.313-1.043,2.313-2.359V167.433z 
        M427.632,168.976v-1.543c0-1.27-1.044-2.312-2.313-2.312c-1.271,0-2.313,1.043-2.313,2.312c0,0.59,0,0.59,0.136,0.771
        l6.306,8.348c1.089,1.451,1.089,1.451,1.089,2.902c0,2.857-2.359,5.217-5.217,5.217c-2.858,0-5.217-2.359-5.217-5.217v-1.543
        c0-0.408,0.317-0.725,0.726-0.725h1.451c0.408,0,0.727,0.316,0.727,0.725v1.543c0,1.271,1.043,2.314,2.313,2.314
        c1.27,0,2.313-1.043,2.313-2.314c0-0.59,0-0.59-0.137-0.771l-6.306-8.346c-1.088-1.453-1.088-1.453-1.088-2.904
        c0-2.857,2.358-5.217,5.217-5.217c2.857,0,5.217,2.359,5.217,5.217v1.543c0,0.408-0.317,0.725-0.726,0.725h-1.452
        C427.949,169.7,427.632,169.384,427.632,168.976z 
        M217.313,25.289l2.12-4.599c0.36-0.72-0.24-1.48-0.4-1.68l2.2-0.04c1.28,0,1.28,0.439,0.84,1.399l-3.199,7.479
        c-0.76,1.76-1.6,3.52-2.48,5.279c2.4-0.92,4.08-1.52,5.879-4.159c1.28-1.88,2-3.52,2.399-4.279c0.36-0.72,0.96-0.439,0.56,0.36
        c-2.72,5.559-3.759,7.278-9.519,9.358c-2.52,4.519-6.479,10.638-12.398,10.638c-4,0-4.399-2.64-3.199-4.879
        c0.76-1.479,2.199-2.56,3.759-3.279c2.68-1.28,6.479-1.96,9.718-2.88c0.44-0.76,0.92-1.56,1.28-2.319
        c0.96-1.92,2.12-4.359,2.799-5.759C217.433,25.929,217.073,25.809,217.313,25.289z M204.555,37.767
        c-4.119,1.76-5.599,6.479-2.2,6.479c3.52,0,7.799-4.959,9.599-7.479c0.32-0.44,0.6-0.96,0.88-1.479
        C210.274,35.967,206.835,36.767,204.555,37.767z M221.833,17.331c-0.92,0-1.52-0.72-1.4-1.64c0.16-0.92,1.04-1.64,1.919-1.64
        c0.92,0,1.56,0.72,1.4,1.64C223.592,16.611,222.752,17.331,221.833,17.331z 
        M226.833,36.047c-1,0-2.52,0.72-2.64,1.88c-0.08,0.8-0.68,0.56-0.64-0.24c0.08-1.08,1.48-2.84,3.28-2.84
        c7.119,0,10.158,8.799,22.156,11.118c8.678,1.68,6.918-7.238-0.72-8.479c-0.8-0.12-0.88-0.88-0.12-0.76
        c9.318,1.479,11.038,10.438,0.84,10.438C234.911,47.166,233.071,36.047,226.833,36.047z M243.229,7.452
        c-6.279-1.919-16.877,12.798-14.397,21.717c1.879,6.559,8.398,5.959,13.678,1.96c14.078-10.639,10.198-31.195-7.479-28.876
        c-6.239,0.84-8.918,5.839-7.398,12.038c0.2,0.88-0.44,1.28-0.96,0.24c-2.959-6.039,1.52-12.038,8.199-13.158
        c23.596-3.999,22.396,21.437,7.719,31.115c-5.239,3.439-12.838,3.839-15.478-2.84c-4.439-11.078,8.559-27.195,16.437-22.756
        C244.149,7.212,243.75,7.612,243.229,7.452z 
        M263.231,32.368c-1.8,0-2.879-1.88-1.84-5.119c-1.36,2.399-3.439,5.119-5.399,5.119c-0.8,0-2.2-0.28-2.52-1.8
        c-0.36-1.72,0.64-3.199,1.359-4.639c-0.24,0-0.6-0.12-0.36-0.641l0.72-1.399c0.8-1.52,1.64-3.159,2.239-4.399
        c0.32-0.64,0.8-0.84,1.56-0.84h2.439c-0.92,0.68-1.48,1.16-2.56,3.359c0,0-1.8,3.64-2.52,5.159c-1.92,4.159-0.24,5.759,2.359,2.76
        c2.24-2.6,4.439-7.279,5.959-10.438c0.32-0.64,0.8-0.84,1.56-0.84h2.16c-1.16,0.92-1.56,1.479-2.76,3.959
        c-1.12,2.24-2.439,5-2.68,6.359c-0.36,1.72,0.2,2.359,0.76,2.399c1.959,0,3.959-3.799,5.319-6.679c0.32-0.72,0.96-0.439,0.56,0.36
        C268.311,27.768,266.151,32.368,263.231,32.368z 
        M271.832,32.568c-2,0-3.799-1.32-3.839-3.84c-0.04-2.399,1.32-5.398,3.08-7.479c2.04-2.399,5.079-3.919,6.839-2.6
        c1.52,1.16,0.36,3.88-2.2,5.839c-1.24,0.92-3.839,1.76-4.919,1.76c-0.6,1.44-1.28,5.479,1.359,5.479c3.52,0,5.679-4.72,6.599-6.839
        c0.32-0.72,1.12-0.8,0.72,0.04C277.991,28.128,276.271,32.568,271.832,32.568z M273.471,21.809c-1.04,1.28-2.04,3.04-2.399,3.76
        c0.72,0,2.799-0.56,4.239-1.76C278.59,21.049,278.391,15.85,273.471,21.809z 
        M283.991,32.368c-1.36,0.32-3.799-0.88-2.2-5.039c0.6-1.64,2.04-3.72,2.479-4.72c0.56-1.319-0.84-1.839-3.08-1.879
        l-0.48,1.279c-0.959,2.52-2.879,6.959-4.839,8.839c-0.32,0.28-0.56-0.16-0.32-0.521c3.16-4.159,5.359-10.198,6.159-14.677
        c0.4-2.24,3-1.24,2.439,1.439c-0.24,1.12-1.52,2.199-2.2,2.68c1.48,0.08,3.56,0.04,5.519-0.16c0.28,0.56-0.36,2.08-0.84,3.079
        c-0.6,1.24-4.679,8.559-2.279,8.679c1.64,0.04,4.119-4.959,4.959-6.679c0.36-0.68,0.88-0.399,0.48,0.4
        C288.63,27.489,286.591,31.728,283.991,32.368z 
        M296.23,34.408c-2.52,4.519-6.479,10.638-12.398,10.638c-3.999,0-4.399-2.64-3.199-4.879c0.76-1.479,2.2-2.56,3.759-3.279
        c2.68-1.28,6.479-1.96,9.718-2.88c1.52-2.64,2.8-6.919,3.439-8.998c-1.36,2.399-3.959,7.358-7.039,7.358c-0.8,0-2.2-0.28-2.52-1.8
        c-0.36-1.72,0.64-3.199,1.359-4.639c-0.24,0-0.6-0.12-0.36-0.641l0.72-1.399c0.8-1.52,1.64-3.159,2.239-4.399
        c0.32-0.64,0.8-0.84,1.56-0.84h2.439c-0.36,0.32-1,0.6-1.48,1.439c-1.359,2.32-2.479,4.68-3.599,7.079
        c-1.92,4.159-0.24,5.759,2.359,2.76c2.24-2.6,4.759-7.279,6.279-10.438c0.32-0.64,0.8-0.84,1.56-0.84h2.16
        c-1.52,1.04-2.12,2.64-3.12,5.319c-1,2.68-2.04,5.999-3.199,9.158c1.76-0.52,4.199-1.72,5.759-3.959c1.24-1.8,2.12-3.64,2.52-4.399
        c0.36-0.72,0.96-0.44,0.56,0.36C303.029,30.648,301.989,32.328,296.23,34.408z M285.072,37.767c-4.079,1.76-5.599,6.479-2.159,6.479
        c3.519,0,7.758-4.959,9.598-7.479l0.88-1.479C290.791,35.967,287.352,36.767,285.072,37.767z 
        M343.866,21.49c-3.279,0.8-6.84,1.119-8.959,0.96c-1.76,2.6-3.719,5.079-5.999,7.278c-3.399,3.199-7.479,4.64-11.758,4.119
        c-8.159-0.96-5.439-10.318,3.6-7.278c0.84,0.319,0.56,0.8-0.12,0.52c-6.398-2.399-7.998,5.359-2.479,5.64
        c3.56,0.159,6.519-1.561,9.198-4.16c5.239-5.158,8.279-15.797,15.078-23.436c0.76-0.8,1.398-1.56,2.119-2.239
        c-4.56-0.681-9.799-0.36-13.158,0.279c-5.039,0.92-13.357,4-14.317,9.959c-0.44,2.799,1.521,4.999,3.919,5.079
        c2.52,0.08,5.08-2.16,6-4.84c0.119-0.6,0.56-0.52,0.56,0.04c-0.04,3.64-3.52,5.68-6.64,5.6c-3.158-0.12-6.118-2.12-5.918-6.199
        c0.359-7.159,10.518-10.118,16.236-10.958c4.439-0.64,9.679-0.92,14.398,0.04c0.879-0.68,1.799-1.24,2.999-1.68
        c1.28-0.521,1.36,0,0.399,0.6c-0.399,0.28-1.119,0.8-1.799,1.479c1.68,0.44,3.239,1.08,4.639,1.92
        C361.942,10.211,351.784,19.57,343.866,21.49z M346.466,3.252c-4.08,5.719-7.119,12.398-10.998,18.357
        c2.039,0.08,4.599-0.32,7.118-1.08c8.679-2.64,14.638-11.278,8.358-15.478C349.745,4.252,348.185,3.653,346.466,3.252z 
        M354.229,24.689c-0.199,0.68-0.6,1.64-0.84,2.64c-1.199,4.799,2,5.479,4.119,2.52c1.32-1.88,2.439-4.039,2.96-5.079
        c0.36-0.68,0.96-0.6,0.6,0.2c-0.999,2.119-3.079,7.519-7.118,7.519c-4.479,0-2.561-5.479-1.88-7.879
        c1.239-4.479,3.759-10.238,6.079-14.117c2.84-4.76,7.158-4.199,4.279,2.199C360.589,16.81,358.149,21.129,354.229,24.689z
        M360.868,10.292c-1.959,2.76-5.078,9.918-6.318,13.118c2.84-2.88,5.719-7.6,7.279-11.318
        C362.628,10.251,363.028,7.212,360.868,10.292z 
        M368.989,32.368c-1.801,0-2.88-1.88-1.84-5.119c-1.36,2.399-3.439,5.119-5.399,5.119c-0.8,0-2.2-0.28-2.52-1.8
        c-0.36-1.72,0.64-3.199,1.359-4.639c-0.239,0-0.6-0.12-0.36-0.641l0.721-1.399c0.8-1.52,1.64-3.159,2.239-4.399
        c0.32-0.64,0.8-0.84,1.56-0.84h2.439c-0.92,0.68-1.479,1.16-2.559,3.359c0,0-1.801,3.64-2.52,5.159
        c-1.92,4.159-0.24,5.759,2.359,2.76c2.239-2.6,4.439-7.279,5.959-10.438c0.32-0.64,0.8-0.84,1.56-0.84h2.159
        c-1.16,0.92-1.56,1.479-2.76,3.959c-1.119,2.24-2.439,5-2.68,6.359c-0.359,1.72,0.201,2.359,0.761,2.399
        c1.96,0,3.959-3.799,5.319-6.679c0.319-0.72,0.959-0.439,0.56,0.36C374.067,27.768,371.908,32.368,368.989,32.368z 
        M384.868,32.887c-1.76,5.04-7.039,12.158-12.838,12.158c-2.52,0-3.76-1-3.76-3.079c0-1.96,1.561-3.479,3.48-4.6
        c3.919-2.319,7.559-3.079,10.637-4.319c0.48-1.399,0.762-2.839,0.92-4.439c0.16-1.56,0.16-2.839,0.041-3.279
        c-1.279,2.479-4.479,7.879-7.679,6.919c-3.999-1.72-1.601-7.479,1.359-10.998c2.36-2.84,6.278-4.199,9.278-1.84
        c1.4,1.16,0,2.359-0.439,1.16c-1.039-2.84-4-1.24-6.439,1.479c-2.919,3.279-5.158,8.119-3.079,9.039
        c2.359,0.999,6.239-5.119,6.999-7.64c0.561-1.839,1.84-1.119,2.479-1.6c0.521,3.2,0.32,6.56-0.52,9.719c0.961-0.68,2-1.52,2.801-2.6
        c1.318-1.76,1.918-3.479,2.318-4.239c0.361-0.72,1-0.479,0.6,0.32C388.987,29.249,387.827,31.488,384.868,32.887z M380.589,34.687
        c-2.92,1-6.279,2.16-8.799,3.84c-2.6,1.72-4.039,5.719-0.72,5.719c1.72,0,4.079-1.359,5.04-2.079c1.239-1,2.479-2.44,3.599-3.92
        c0.96-1.359,1.72-2.68,2.28-4.039L380.589,34.687z 
        M391.829,31.528c0.6,0.08,1.359-0.36,1.801-0.76c1.318-1.32,2.639-3.8,3.758-6.039c0.32-0.72,0.881-0.439,0.521,0.36
        c-1.041,2.239-3.32,7.318-6.279,7.318c-3,0-3-3.119-2.16-5.199l2.559-6.519c0.32-0.76-0.238-1.48-0.398-1.68l2.199-0.04
        c1.279,0,1.279,0.439,0.84,1.399l-3.199,7.479c0,0-0.4,0.88-0.48,1.16C390.63,30.328,390.71,31.448,391.829,31.528z M394.708,17.331
        c-0.92,0-1.52-0.72-1.398-1.64c0.16-0.92,1.039-1.64,1.92-1.64c0.92,0,1.559,0.72,1.398,1.64S395.628,17.331,394.708,17.331z 
        M404.788,32.568c-1.4,0-3.318-0.96-2.119-4.68c0.32-1.039,1.08-2.399,2.199-4.199c0.959-1.56,0.24-2.64-2.84,0.24
        c-1.359,1.239-3.318,3.479-5.559,7.919c-0.32,0.56-0.68,0.6-1.52,0.6c-0.6,0.04-0.961,0-1.359,0.24
        c1.92-3.8,3.559-7.599,5.518-11.198c1.041-1.92,1.561-2.6,2.84-2.52c0.52,0.04,1.121,0.279,1.68,0.16
        c-1.199,0.64-3.398,4.639-4.838,7.519c0.799-1,2.078-2.52,3.318-3.6c1.92-1.72,6.039-4.239,7.398-3.76c0,0-4.279,7.52-4.799,10.318
        c-0.32,1.64,0.121,2,0.641,2c2.08,0,4.639-5.239,5.479-6.919c0.32-0.72,0.959-0.439,0.561,0.36
        C410.187,27.489,407.868,32.568,404.788,32.568z 
        M261.489,246.735c-3.735-0.674-2.61-8.279,3.42-22.678c2.34-5.535,5.535-15.074,2.025-17.234
        c-7.29-4.5-22.229,4.41-25.919,14.443c-3.42,9.404,1.26,13.994,6.345,13.994c5.04,0,10.395-5.443,10.395-10.395
        c0-2.43-1.08-4.498-4.095-3.6c-1.35,0.406-1.08-0.225-0.225-0.629c3.825-1.801,6.3,0.719,6.3,4.139
        c0,5.715-7.47,11.654-13.095,11.654c-6.209,0-12.194-7.02-8.01-16.604c4.86-11.115,20.159-17.908,28.124-14.398
        c6.57,2.879,4.59,12.059,1.125,19.168c-2.88,5.85-5.04,12.914-5.76,17.01c-1.755,10.17,10.89-3.24,12.419-5.039
        c4.815-5.625,8.82-12.916,7.92-18.404c-0.405-2.34-1.125-2.115-2.16-2.295c-1.575-0.316-1.62-1.666,0.18-1.215
        c2.205,0.584,6.165,3.689,3.6,10.35C279.758,236.386,267.293,247.771,261.489,246.735z 
        M287.229,242.687c-2.25,0-4.275-1.484-4.32-4.32c-0.045-2.699,1.485-6.074,3.465-8.414c2.295-2.699,5.715-4.41,7.695-2.926
        c1.71,1.305,0.405,4.365-2.475,6.57c-1.395,1.035-4.32,1.98-5.535,1.98c-0.675,1.619-1.44,6.164,1.53,6.164
        c3.96,0,6.39-5.311,7.425-7.695c0.36-0.809,1.26-0.898,0.81,0.045C294.159,237.692,292.224,242.687,287.229,242.687z
        M289.074,230.581c-1.17,1.441-2.295,3.42-2.7,4.23c0.81,0,3.15-0.629,4.77-1.98C294.833,229.728,294.608,223.878,289.074,230.581z
        M300.908,242.462c-1.53,0.359-4.275-0.99-2.475-5.67c0.675-1.846,2.295-4.186,2.79-5.311c0.63-1.484-0.945-2.07-3.465-2.115
        l-0.54,1.441c-1.08,2.834-3.24,7.828-5.445,9.943c-0.36,0.314-0.63-0.18-0.36-0.584c3.555-4.68,6.03-11.475,6.93-16.516
        c0.45-2.52,3.375-1.395,2.745,1.621c-0.27,1.26-1.71,2.475-2.475,3.014c1.665,0.09,4.005,0.045,6.21-0.18
        c0.314,0.631-0.405,2.34-0.945,3.465c-0.675,1.395-5.265,9.631-2.565,9.766c1.845,0.045,4.635-5.58,5.58-7.516
        c0.405-0.764,0.99-0.449,0.54,0.451C306.128,236.972,303.833,241.741,300.908,242.462z 
        M309.638,242.237c-0.63,0.27-1.26,0.449-1.845,0.449c-5.445,0-4.41-6.256-2.25-6.346c1.215-2.295,2.7-5.219,3.87-7.783
        c0.81-1.756,2.16-3.646,3.734-3.871c0.676-0.09,1.215,0,1.665,0.225c0.811,0.406,0.63,1.17-0.18,0.766
        c-0.45-0.18-0.99-0.27-1.44-0.045c-2.069,0.99-1.619,4.096-0.944,5.715c0.72,1.711,1.71,3.33,1.62,5.311
        c-0.091,1.754-1.44,3.824-3.195,4.994l0.315,0.045c1.529,0.225,2.925-0.721,4.05-2.07c1.034-1.26,2.43-4.049,3.375-5.895
        c0.225-0.449,0.899-0.18,0.675,0.27C317.423,237.737,314.723,243.767,309.638,242.237z M306.578,238.366
        c-1.44,1.439-0.854,3.555,0.9,3.555c0.314,0,0.63-0.045,0.899-0.18C307.433,241.157,306.668,240.077,306.578,238.366z
        M310.538,228.106c-1.215,2.43-3.15,6.346-4.229,8.324c0,0,0.989-0.045,0.944,1.441c-0.09,1.709,0.855,2.969,1.89,3.465
        c0.99-0.766,1.846-2.295,1.98-4.68C311.258,233.821,310.178,230.132,310.538,228.106z 
        M319.898,241.517c0.675,0.09,1.53-0.404,2.025-0.855c1.484-1.484,2.97-4.275,4.229-6.795c0.36-0.809,0.99-0.494,0.585,0.406
        c-1.17,2.52-3.735,8.234-7.064,8.234c-3.375,0-3.375-3.51-2.431-5.85l2.881-7.336c0.359-0.854-0.271-1.664-0.45-1.889l2.475-0.045
        c1.44,0,1.44,0.494,0.945,1.574l-3.601,8.414c0,0-0.449,0.99-0.54,1.305C318.549,240.167,318.639,241.427,319.898,241.517z
        M323.139,225.542c-1.035,0-1.71-0.811-1.575-1.846c0.18-1.033,1.17-1.844,2.16-1.844c1.035,0,1.755,0.811,1.574,1.844
        C325.118,224.731,324.174,225.542,323.139,225.542z 
        M334.928,242.146c-1.351,0-2.295-0.494-2.88-1.17c-1.261,0.945-2.61,1.576-3.915,1.531c-3.42-0.09-3.915-4.186-2.205-8.189
        c1.755-4.141,5.49-7.65,8.55-7.561c3.42,0.045,3.915,4.186,2.205,8.189c-0.676,1.576-2.07,3.689-3.78,5.311
        c0.36,0.674,1.035,1.125,2.115,1.125c2.88,0,5.22-5.58,6.3-7.74c0.225-0.449,0.989-0.27,0.675,0.404
        C341.228,235.757,338.707,242.146,334.928,242.146z M329.032,234.136c-1.755,3.691-2.159,6.84-0.54,7.336
        c0.855,0.225,1.98-0.225,3.061-1.125c-0.495-0.721-0.72-1.529-0.72-2.205c0.045-1.035,0.449-1.936,1.574-1.936
        c0.766,0,1.351,0.631,1.351,1.35c0,0.182-0.046,0.316-0.091,0.496c0.495-0.721,0.99-1.574,1.396-2.43
        c1.755-3.689,1.979-6.885,0.359-7.381C333.487,227.702,330.697,230.581,329.032,234.136z 
        M349.553,242.687c-1.575,0-3.735-1.08-2.385-5.266c0.359-1.17,1.215-2.699,2.475-4.725c1.08-1.754,0.27-2.969-3.195,0.27
        c-1.529,1.396-3.734,3.916-6.254,8.91c-0.36,0.631-0.766,0.676-1.71,0.676c-0.676,0.045-1.08,0-1.53,0.27
        c2.16-4.275,4.005-8.549,6.21-12.6c1.17-2.16,1.755-2.924,3.194-2.834c0.585,0.045,1.26,0.314,1.891,0.18
        c-1.351,0.719-3.825,5.219-5.445,8.459c0.9-1.125,2.34-2.834,3.735-4.049c2.159-1.936,6.794-4.771,8.324-4.23
        c0,0-4.814,8.459-5.399,11.609c-0.36,1.846,0.135,2.25,0.72,2.25c2.34,0,5.22-5.895,6.165-7.785c0.359-0.809,1.079-0.494,0.63,0.406
        C355.627,236.972,353.018,242.687,349.553,242.687z 
        M371.781,237.962c1.17,0.584,5.085,2.564,6.165,2.564c2.52,0,4.5-3.105,5.085-3.285l0.314,0.27v0.182
        c-1.439,1.754-4.725,5.354-7.109,5.354c-1.306,0-5.94-2.205-7.02-2.654l-3.15,2.475l-0.585-0.359c0.09-0.316,4.14-4.77,4.41-4.859
        c0.27-0.047,0.72-0.092,0.989,0.045c3.69-3.285,14.04-12.6,14.04-17.73c0-1.395-0.855-1.98-2.16-1.98c-3.42,0-6.3,4.051-7.425,6.977
        l-0.18,0.18h-0.54l-0.09-0.271c1.395-3.914,4.904-8.279,9.449-8.279c2.295,0,4.095,1.305,4.095,3.734
        C388.07,225.183,375.201,235.126,371.781,237.962z M472.901,167.321l2.241,4.066l4.562,0.877l-3.175,3.391l0.576,4.609l-4.205-1.973
        l-4.205,1.973l0.577-4.609l-3.176-3.391l4.562-0.877L472.901,167.321 M157.355,167.321l2.242,4.066l4.562,0.877l-3.176,3.391l0.577,4.609l-4.205-1.973
        l-4.205,1.973l0.577-4.609l-3.176-3.391l4.562-0.877L157.355,167.321 
        M588.197,176.552c-0.615-2.039-1.431-4.051-2.179-5.914c-1.488-3.754-2.872-7.576-4.184-11.41
        c-5.121-14.98-7.02-25.893-7.02-33.84c0-7.946,0.881-14.24,3.08-21.98c2.956-10.407,6.635-19.048,8.123-22.802
        c0.748-1.863,1.563-3.875,2.179-5.914c0.632-2.046,1.13-4.157,1.427-6.334c0.29-2.176,0.379-4.427,0.113-6.696
        c-0.272-2.265-0.907-4.546-1.962-6.654c-1.048-2.11-2.516-4.018-4.228-5.597c-1.712-1.585-3.654-2.852-5.675-3.855
        c-2.025-1.002-4.131-1.762-6.275-2.294c-1.071-0.271-2.15-0.491-3.241-0.665c-0.275-0.042-0.543-0.082-0.812-0.119
        c-0.17-2.83-0.575-5.691-1.424-8.535c-1.078-3.644-3.059-7.319-6.111-10.033c-3.037-2.737-6.845-4.271-10.508-5.068
        c-3.696-0.804-7.354-0.982-10.932-0.949c-7.17,0.086-14.063,1.071-20.881,1.781c-6.847,0.731-13.705,1.373-20.571,1.938
        c-13.728,1.217-27.489,2.122-41.267,2.904c-13.779,0.766-32.305,1.356-46.128,1.785c13.802,0.988,32.375,1.264,46.215,1.273
        c13.843-0.005,27.686-0.437,41.52-1.175c6.915-0.415,13.826-0.908,20.731-1.49c6.936-0.533,13.761-1.464,20.422-1.486
        c3.322-0.011,6.608,0.198,9.665,0.892c3.057,0.686,5.833,1.919,7.959,3.823c2.147,1.882,3.635,4.485,4.54,7.436
        c0.91,2.951,1.28,6.188,1.356,9.464l0.06,2.533l2.621,0.17c7.201,0.469,15.299,3.314,18.541,9.544
        c1.65,3.066,2.101,6.8,1.776,10.568c-0.168,1.89-0.521,3.794-1.009,5.683c-0.482,1.905-1.117,3.725-1.81,5.691
        c-0.977,2.851-1.856,5.721-2.673,8.609c0.484-2.457,0.949-4.924,1.365-7.426c0.56-3.58,1.108-7.229,0.941-11.133
        c-0.105-1.944-0.445-3.962-1.128-5.871c-0.17-0.476-0.357-0.944-0.562-1.401l-0.342-0.726c-0.112-0.211-0.181-0.358-0.348-0.645
        c-0.571-1-1.229-1.816-1.99-2.58c-1.521-1.5-3.328-2.534-5.151-3.267c-1.839-0.718-3.712-1.144-5.572-1.418
        c-1.863-0.271-3.72-0.38-5.564-0.38c-1.324,0.007-2.62,0.055-3.938,0.177c0.086-1.563,0.091-3.097,0.038-4.653
        c-0.076-2.109-0.282-4.219-0.698-6.293c-0.414-2.072-1.003-4.124-1.916-6.035c-0.923-1.895-2.177-3.668-3.842-4.918
        c1.453,1.485,2.442,3.312,3.084,5.23c0.651,1.918,1.008,3.921,1.182,5.935c0.165,2.017,0.178,4.045,0.073,6.065
        c-0.11,2.008-0.334,4.064-0.694,5.981l-0.302,1.604l1.774-0.069c3.372-0.133,6.909,0.07,10.182,0.792
        c1.639,0.364,3.229,0.86,4.664,1.549c1.44,0.668,2.729,1.532,3.691,2.595c0.471,0.521,0.898,1.137,1.178,1.7
        c0.058,0.098,0.17,0.358,0.258,0.545l0.197,0.496c0.138,0.363,0.26,0.73,0.368,1.1c0.433,1.477,0.609,3.019,0.606,4.632
        c0.011,3.227-0.572,6.657-1.242,10.077c-1.364,6.864-3.141,13.755-4.49,20.912c-1.606,8.516-2.195,18.528-2.195,24.955
        c0,6.425,0.667,17.384,2.195,25.468c1.353,7.158,3.126,14.049,4.49,20.912c0.67,3.42,1.253,6.852,1.242,10.078
        c0.003,1.613-0.174,3.154-0.606,4.631c-0.108,0.369-0.23,0.736-0.368,1.1l-0.197,0.496c-0.088,0.188-0.2,0.447-0.258,0.545
        c-0.279,0.564-0.707,1.18-1.178,1.701c-0.962,1.062-2.251,1.926-3.691,2.594c-1.436,0.689-3.025,1.186-4.664,1.549
        c-3.272,0.723-6.81,0.926-10.182,0.793l-1.774-0.07l0.302,1.605c0.36,1.916,0.584,3.973,0.694,5.98
        c0.104,2.021,0.092,4.049-0.073,6.066c-0.174,2.014-0.53,4.016-1.182,5.936c-0.642,1.916-1.631,3.744-3.084,5.229
        c1.665-1.25,2.919-3.023,3.842-4.918c0.913-1.91,1.502-3.963,1.916-6.035c0.416-2.074,0.622-4.184,0.698-6.293
        c0.053-1.557,0.048-3.088-0.038-4.652c1.318,0.123,2.614,0.17,3.938,0.176c1.845,0,3.701-0.109,5.564-0.379
        c1.86-0.273,3.733-0.701,5.572-1.418c1.823-0.732,3.631-1.768,5.151-3.268c0.762-0.764,1.419-1.58,1.99-2.58
        c0.167-0.285,0.235-0.434,0.348-0.645l0.342-0.725c0.205-0.457,0.393-0.926,0.562-1.402c0.683-1.908,1.022-3.926,1.128-5.871
        c0.167-3.904-0.382-7.553-0.941-11.133c-0.416-2.502-0.881-4.969-1.365-7.424c0.816,2.889,1.696,5.758,2.673,8.607
        c0.692,1.967,1.327,3.787,1.81,5.691c0.488,1.889,0.841,3.793,1.009,5.684c0.324,3.768-0.126,7.502-1.776,10.568
        c-3.242,6.229-11.34,9.074-18.541,9.543l-2.621,0.17l-0.06,2.535c-0.076,3.273-0.446,6.512-1.356,9.463
        c-0.905,2.949-2.393,5.553-4.54,7.436c-2.126,1.904-4.902,3.137-7.959,3.822c-3.057,0.693-6.343,0.902-9.665,0.893
        c-6.661-0.023-13.486-0.953-20.422-1.486c-6.905-0.582-13.816-1.076-20.731-1.49c-13.834-0.738-27.677-1.17-41.52-1.176
        c-13.84,0.01-45.659,0.285-59.461,1.273c13.824,0.43,45.595,1.02,59.374,1.785c13.777,0.783,27.539,1.688,41.267,2.904
        c6.866,0.564,13.725,1.207,20.571,1.938c6.817,0.711,13.711,1.697,20.881,1.781c3.578,0.033,7.235-0.145,10.932-0.949
        c3.663-0.797,7.471-2.33,10.508-5.068c3.053-2.713,5.033-6.389,6.111-10.033c0.849-2.844,1.254-5.705,1.424-8.535
        c0.269-0.037,0.536-0.076,0.812-0.119c1.091-0.174,2.17-0.395,3.241-0.664c2.145-0.533,4.25-1.293,6.275-2.295
        c2.021-1.004,3.963-2.27,5.675-3.855c1.712-1.578,3.18-3.486,4.228-5.596c1.055-2.109,1.689-4.391,1.962-6.654
        c0.266-2.27,0.177-4.521-0.113-6.697C589.327,180.71,588.829,178.599,588.197,176.552z 
        M29.727,176.552c0.615-2.039,1.431-4.051,2.179-5.914c1.488-3.754,2.873-7.576,4.184-11.41
        c5.121-14.98,7.02-25.893,7.02-33.84c0-7.946-0.881-14.24-3.081-21.98C37.072,93,33.394,84.359,31.905,80.605
        c-0.748-1.863-1.563-3.875-2.179-5.914c-0.632-2.046-1.13-4.157-1.427-6.334c-0.29-2.176-0.379-4.427-0.113-6.696
        c0.272-2.265,0.907-4.546,1.962-6.654c1.047-2.11,2.515-4.018,4.227-5.597c1.712-1.585,3.654-2.852,5.675-3.855
        c2.025-1.002,4.131-1.762,6.275-2.294c1.072-0.271,2.151-0.491,3.241-0.665c0.275-0.042,0.543-0.082,0.811-0.119
        c0.17-2.83,0.576-5.691,1.425-8.535c1.077-3.644,3.058-7.319,6.111-10.033c3.037-2.737,6.845-4.271,10.508-5.068
        c3.696-0.804,7.354-0.982,10.931-0.949c7.17,0.086,14.063,1.071,20.881,1.781c6.846,0.731,13.705,1.373,20.571,1.938
        c13.727,1.217,27.489,2.122,41.266,2.904c13.78,0.766,32.305,1.356,46.129,1.785c-13.802,0.988-32.376,1.264-46.216,1.273
        c-13.842-0.005-27.685-0.437-41.519-1.175c-6.915-0.415-13.826-0.908-20.731-1.49c-6.936-0.533-13.761-1.464-20.422-1.486
        c-3.322-0.011-6.608,0.198-9.665,0.892c-3.057,0.686-5.833,1.919-7.959,3.823c-2.147,1.882-3.635,4.485-4.541,7.436
        c-0.91,2.951-1.279,6.188-1.356,9.464l-0.06,2.533l-2.621,0.17c-7.201,0.469-15.298,3.314-18.541,9.544
        c-1.651,3.066-2.101,6.8-1.777,10.568c0.168,1.89,0.52,3.794,1.009,5.683c0.482,1.905,1.117,3.725,1.809,5.691
        c0.977,2.851,1.857,5.721,2.673,8.609c-0.484-2.457-0.949-4.924-1.365-7.426c-0.56-3.58-1.109-7.229-0.941-11.133
        c0.105-1.944,0.445-3.962,1.128-5.871c0.169-0.476,0.356-0.944,0.562-1.401l0.342-0.726c0.112-0.211,0.181-0.358,0.348-0.645
        c0.571-1,1.228-1.816,1.989-2.58c1.521-1.5,3.329-2.534,5.152-3.267c1.839-0.718,3.711-1.144,5.572-1.418
        c1.864-0.271,3.72-0.38,5.564-0.38c1.325,0.007,2.621,0.055,3.939,0.177c-0.086-1.563-0.091-3.097-0.038-4.653
        c0.076-2.109,0.282-4.219,0.699-6.293c0.414-2.072,1.002-4.124,1.915-6.035c0.923-1.895,2.177-3.668,3.842-4.918
        c-1.452,1.485-2.442,3.312-3.083,5.23c-0.651,1.918-1.008,3.921-1.182,5.935c-0.166,2.017-0.179,4.045-0.074,6.065
        c0.111,2.008,0.334,4.064,0.695,5.981l0.301,1.604l-1.774-0.069c-3.373-0.133-6.909,0.07-10.182,0.792
        c-1.638,0.364-3.229,0.86-4.664,1.549c-1.44,0.668-2.729,1.532-3.691,2.595c-0.471,0.521-0.898,1.137-1.178,1.7
        c-0.058,0.098-0.17,0.358-0.258,0.545l-0.197,0.496c-0.138,0.363-0.261,0.73-0.369,1.1c-0.433,1.477-0.609,3.019-0.606,4.632
        c-0.011,3.227,0.572,6.657,1.242,10.077c1.365,6.864,3.141,13.755,4.491,20.912c1.606,8.516,2.195,18.528,2.195,24.955
        c0,6.425-0.667,17.384-2.195,25.468c-1.353,7.158-3.126,14.049-4.491,20.912c-0.669,3.42-1.252,6.852-1.242,10.078
        c-0.002,1.613,0.174,3.154,0.606,4.631c0.108,0.369,0.231,0.736,0.369,1.1l0.197,0.496c0.087,0.188,0.2,0.447,0.258,0.545
        c0.28,0.564,0.707,1.18,1.178,1.701c0.962,1.062,2.251,1.926,3.691,2.594c1.436,0.689,3.026,1.186,4.664,1.549
        c3.272,0.723,6.809,0.926,10.182,0.793l1.774-0.07l-0.301,1.605c-0.36,1.916-0.584,3.973-0.695,5.98
        c-0.104,2.021-0.091,4.049,0.074,6.066c0.173,2.014,0.53,4.016,1.182,5.936c0.641,1.916,1.631,3.744,3.083,5.229
        c-1.665-1.25-2.918-3.023-3.842-4.918c-0.913-1.91-1.501-3.963-1.915-6.035c-0.417-2.074-0.623-4.184-0.699-6.293
        c-0.053-1.557-0.048-3.088,0.038-4.652c-1.318,0.123-2.614,0.17-3.939,0.176c-1.844,0-3.7-0.109-5.564-0.379
        c-1.861-0.273-3.733-0.701-5.572-1.418c-1.823-0.732-3.631-1.768-5.152-3.268c-0.761-0.764-1.418-1.58-1.989-2.58
        c-0.167-0.285-0.236-0.434-0.348-0.645l-0.342-0.725c-0.206-0.457-0.393-0.926-0.562-1.402c-0.683-1.908-1.023-3.926-1.128-5.871
        c-0.167-3.904,0.381-7.553,0.941-11.133c0.416-2.502,0.88-4.969,1.365-7.424c-0.816,2.889-1.697,5.758-2.673,8.607
        c-0.692,1.967-1.327,3.787-1.809,5.691c-0.489,1.889-0.841,3.793-1.009,5.684c-0.324,3.768,0.125,7.502,1.777,10.568
        c3.242,6.229,11.339,9.074,18.541,9.543l2.621,0.17l0.06,2.535c0.077,3.273,0.446,6.512,1.356,9.463
        c0.906,2.949,2.393,5.553,4.541,7.436c2.126,1.904,4.902,3.137,7.959,3.822c3.057,0.693,6.343,0.902,9.665,0.893
        c6.661-0.023,13.486-0.953,20.422-1.486c6.906-0.582,13.817-1.076,20.731-1.49c13.834-0.738,27.677-1.17,41.519-1.176
        c13.84,0.01,45.66,0.285,59.461,1.273c-13.824,0.43-45.595,1.02-59.375,1.785c-13.777,0.783-27.539,1.688-41.266,2.904
        c-6.867,0.564-13.725,1.207-20.571,1.938c-6.818,0.711-13.711,1.697-20.881,1.781c-3.577,0.033-7.235-0.145-10.931-0.949
        c-3.663-0.797-7.471-2.33-10.508-5.068c-3.053-2.713-5.034-6.389-6.111-10.033c-0.849-2.844-1.255-5.705-1.425-8.535
        c-0.268-0.037-0.536-0.076-0.811-0.119c-1.09-0.174-2.169-0.395-3.241-0.664c-2.145-0.533-4.25-1.293-6.275-2.295
        c-2.021-1.004-3.963-2.27-5.675-3.855c-1.712-1.578-3.18-3.486-4.227-5.596c-1.055-2.109-1.69-4.391-1.962-6.654
        c-0.266-2.27-0.177-4.521,0.113-6.697C28.597,180.71,29.095,178.599,29.727,176.552z 
        M70.344,86.839c10.432-1.652,15.653-2.433,26.104-3.902c1.64,4.943,2.458,7.416,4.082,12.362
        c-5.808,0.808-8.711,1.226-14.512,2.09c0.962,6.456,1.443,9.684,2.405,16.14c4.358-0.649,6.539-0.966,10.9-1.583
        c0.665,4.697,0.996,7.045,1.66,11.743c-4.327,0.612-6.49,0.927-10.813,1.571c1.639,10.998,2.459,16.494,4.098,27.492
        c-5.268,0.785-7.901,1.19-13.163,2.024C77.519,132.13,73.929,109.485,70.344,86.839z 
        M121.489,140.351c-0.026,3.447-0.04,5.171-0.061,8.618c-5.172,0.671-7.756,1.018-12.924,1.735
        c0.745-23.263,1.638-46.516,2.682-69.767c5.75-0.751,8.628-1.114,14.384-1.811c6.769,22.268,13.396,44.574,19.878,66.927
        c-5.18,0.585-7.769,0.891-12.945,1.521c-0.874-3.334-1.313-5.002-2.193-8.335C126.78,139.674,125.017,139.896,121.489,140.351z
        M121.529,129.345c2.406-0.308,3.609-0.46,6.016-0.758c-2.383-9.533-3.584-14.296-6.007-23.821
        C121.514,114.599,121.512,119.514,121.529,129.345z 
        M160.623,144.422c-3.729,0.381-6.417-0.154-8.074-1.63s-2.696-4.099-3.108-7.871c-1.803-16.474-3.599-32.949-5.397-49.423
        c-0.295-2.703,0.232-4.858,1.593-6.469c1.36-1.609,3.158-2.533,5.389-2.765c7.103-0.738,10.656-1.086,17.765-1.741
        c1.4,5.016,2.098,7.524,3.482,12.543c-5.13,0.464-7.695,0.708-12.822,1.216c-0.8,0.079-1.154,0.561-1.066,1.441
        c1.341,13.436,2.686,26.872,4.028,40.308c0.088,0.882,0.521,1.285,1.298,1.208c4.98-0.494,7.472-0.729,12.456-1.181
        c-0.47,5.187-0.703,7.781-1.157,12.968C169.252,143.557,166.375,143.834,160.623,144.422z 
        M178.097,73.694c10.5-0.902,15.753-1.306,26.264-2.026c1.282,5.047,1.92,7.572,3.186,12.622
        c-5.84,0.391-8.759,0.601-14.596,1.048c0.499,6.508,0.748,9.762,1.247,16.27c4.385-0.336,6.578-0.497,10.965-0.801
        c0.328,4.732,0.493,7.099,0.82,11.831c-4.352,0.301-6.528,0.461-10.878,0.794c0.458,5.979,0.688,8.968,1.146,14.947
        c5.455-0.418,8.183-0.617,13.64-0.984c-0.553,5.172-0.827,7.759-1.364,12.931c-9.822,0.676-14.731,1.057-24.543,1.899
        C182.021,119.382,180.058,96.538,178.097,73.694z 
        M263.94,126.944c0.115,3.793-0.55,6.531-1.984,8.223c-1.435,1.691-4.02,2.599-7.761,2.738
        c-9.157,0.342-13.733,0.549-22.886,1.034c-1.217-22.896-2.432-45.792-3.647-68.688c10.592-0.562,15.891-0.797,26.489-1.174
        c2.673-0.095,4.705,0.598,6.089,2.073c1.383,1.475,2.112,3.479,2.189,6.008C262.932,93.753,263.437,110.349,263.94,126.944z
        M241.625,81.635c0.658,14.881,1.315,29.761,1.975,44.642c2.442-0.108,3.663-0.159,6.105-0.256
        c0.539-0.021,0.878-0.144,1.02-0.373c0.14-0.227,0.202-0.593,0.182-1.099c-0.547-13.967-1.096-27.935-1.643-41.902
        c-0.035-0.884-0.453-1.312-1.254-1.28C245.457,81.469,244.179,81.522,241.625,81.635z 
        M270.107,68.593c10.526-0.264,15.791-0.352,26.319-0.434c0.973,5.116,1.456,7.675,2.413,12.792
        c-5.849,0.037-8.774,0.069-14.623,0.162c0.104,6.526,0.158,9.791,0.262,16.317c4.394-0.07,6.59-0.097,10.984-0.134
        c0.041,4.744,0.062,7.114,0.103,11.857c-4.36,0.038-6.539,0.065-10.898,0.135c0.096,5.996,0.144,8.992,0.239,14.987
        c5.466-0.087,8.198-0.119,13.665-0.155c-0.865,5.129-1.293,7.694-2.143,12.824c-9.839,0.08-14.757,0.163-24.594,0.41
        C271.256,114.434,270.682,91.513,270.107,68.593z 
        M332.455,68.306c1.263,5.144,1.887,7.717,3.127,12.863c-3.591-0.065-5.386-0.093-8.977-0.137
        c-0.228,18.658-0.45,37.315-0.681,55.973c-5.275-0.064-7.913-0.085-13.189-0.102c0.061-18.658,0.116-37.316,0.171-55.975
        c-3.591-0.011-5.386-0.01-8.978,0c1.392-5.127,2.095-7.69,3.512-12.814C317.447,68.109,322.449,68.146,332.455,68.306z 
        M341.882,68.485c10.527,0.232,15.792,0.394,26.315,0.809c0.73,5.156,1.09,7.734,1.805,12.891
        c-5.846-0.239-8.769-0.345-14.616-0.527c-0.204,6.524-0.306,9.787-0.51,16.311c4.394,0.137,6.59,0.214,10.982,0.384
        c-0.184,4.74-0.274,7.11-0.457,11.85c-4.357-0.168-6.538-0.244-10.896-0.38c-0.188,5.993-0.278,8.989-0.466,14.982
        c5.465,0.171,8.196,0.269,13.659,0.49c-1.106,5.082-1.655,7.624-2.746,12.708c-9.834-0.384-14.753-0.534-24.59-0.752
        C340.868,114.329,341.376,91.407,341.882,68.485z 
        M384.451,138.895c-3.739-0.196-6.31-1.14-7.718-2.853c-1.409-1.713-2.03-4.464-1.857-8.254
        c0.748-16.555,1.506-33.108,2.262-49.663c0.124-2.716,0.979-4.767,2.569-6.149c1.589-1.381,3.505-2.017,5.743-1.903
        c7.125,0.362,10.688,0.563,17.809,1.009c0.611,5.171,0.913,7.758,1.51,12.93c-5.139-0.33-7.71-0.483-12.851-0.769
        c-0.802-0.044-1.225,0.375-1.273,1.259c-0.739,13.483-1.474,26.968-2.214,40.451c-0.049,0.885,0.314,1.347,1.093,1.39
        c4.993,0.277,7.492,0.426,12.483,0.746c-1.262,5.052-1.89,7.582-3.135,12.636C393.105,139.365,390.22,139.197,384.451,138.895z 
        M439.21,73.76c0.899,5.22,1.346,7.83,2.223,13.051c-3.581-0.317-5.371-0.472-8.953-0.768
        c-1.538,18.595-3.072,37.19-4.611,55.785c-5.263-0.435-7.895-0.64-13.16-1.026c1.366-18.608,2.734-37.217,4.104-55.825
        c-3.584-0.263-5.379-0.389-8.964-0.631c1.75-5.017,2.632-7.524,4.405-12.536C424.241,72.507,429.231,72.897,439.21,73.76z 
        M448.61,74.601c5.396,0.5,8.094,0.762,13.486,1.311c-2.316,22.81-4.64,45.62-6.957,68.43
        c-5.149-0.523-7.723-0.771-12.875-1.249C444.377,120.261,446.494,97.431,448.61,74.601z 
        M497.283,139.393c-0.172,1.317-0.483,2.537-0.931,3.659c-0.448,1.123-1.084,2.076-1.906,2.861
        c-0.824,0.788-1.861,1.37-3.109,1.753c-1.251,0.384-2.76,0.465-4.532,0.245c-5.955-0.737-8.934-1.09-14.894-1.766
        c-1.774-0.201-3.224-0.635-4.348-1.299c-1.125-0.664-1.993-1.477-2.609-2.434c-0.615-0.956-1.012-2.029-1.184-3.226
        c-0.173-1.195-0.188-2.455-0.047-3.775c1.775-16.603,3.549-33.206,5.327-49.809c0.289-2.703,1.242-4.781,2.87-6.227
        c1.626-1.446,4.025-1.997,7.184-1.64c6.688,0.756,10.031,1.152,16.713,1.982c3.155,0.392,5.359,1.487,6.604,3.273
        c1.243,1.787,1.689,4.032,1.338,6.728C501.596,106.277,499.442,122.835,497.283,139.393z M483.372,90.355
        c-0.799-0.093-1.25,0.302-1.352,1.181c-1.612,13.884-3.221,27.769-4.832,41.653c-0.059,0.503-0.025,0.874,0.097,1.11
        c0.123,0.237,0.453,0.388,0.99,0.45c1.967,0.229,2.952,0.347,4.918,0.583c0.536,0.064,0.89-0.002,1.065-0.205
        c0.175-0.201,0.296-0.553,0.356-1.056c1.683-13.877,3.362-27.754,5.045-41.631c0.106-0.878-0.24-1.368-1.037-1.464
        C486.523,90.724,485.473,90.601,483.372,90.355z 
        M512.792,81.924c5.117,0.694,7.672,1.054,12.785,1.792c0.969,9.433,1.899,18.871,2.785,28.312
        c1.628-10.923,2.441-16.385,4.069-27.308c5.518,0.822,8.273,1.246,13.785,2.119c-3.588,22.646-7.172,45.292-10.76,67.938
        c-5.263-0.834-7.896-1.239-13.163-2.024c-0.892-9.824-1.816-19.646-2.797-29.461c-1.361,9.485-2.734,18.969-4.099,28.454
        c-4.74-0.683-7.111-1.018-11.855-1.661C506.622,127.363,509.707,104.644,512.792,81.924z"/>
    </g>
</svg>