<svg version="1.1"
     xmlns="http://www.w3.org/2000/svg" xmlns:xlink="http://www.w3.org/1999/xlink" xmlns:a="http://ns.adobe.com/AdobeSVGViewerExtensions/3.0/"
     x="0px" y="0px" width="250px" height="160px" viewBox="0 -20 250 210"
     overflow="visible"  xml:space="preserve">

<filter id="dropshadow" height="130%">
    <feGaussianBlur in="SourceAlpha" stdDeviation="20"/>
    <feOffset dx="1" dy="1" result="offsetblur"/>
    <feMerge> 
        <feMergeNode/>
        <feMergeNode in="SourceGraphic"/>
    </feMerge>
</filter>

<polygon fill="white" style="filter:url(#dropshadow)" points="130.487,95.233 133.186,103.232 141.98,103.232 134.872,108.153 137.582,116.153 130.487,111.212 
    123.376,116.153 126.088,108.153 118.982,103.232 127.766,103.232"/>
<rect x="145.852" y="105.692" fill="white" style="filter:url(#dropshadow)" width="117.169" height="2.488"/>
<rect y="105.692" fill="white" style="filter:url(#dropshadow)" width="113.299" height="2.488"/>

<path fill="white" style="filter:url(#dropshadow)" d="M37.97,0l4.358,16.344H30.585v71.431H12.667V16.344H0.923L5.524,0H37.97z M92.33,52.059c0,1.937-0.666,3.713-1.998,5.327c-1.332,1.616-3.29,2.421-5.872,2.421l9.201,27.967h-18.16
    l-8.475-27.967h-2.3v27.967H47.171V0h33.294c4.116,0,7.122,1.029,9.02,3.087c1.896,2.058,2.845,4.824,2.845,8.293V52.059z
     M64.727,15.375v30.267h8.596c1.129,0,1.695-0.605,1.695-1.816V17.191c0-1.21-0.565-1.816-1.695-1.816H64.727z M132.163,87.774h-18.524V65.498L96.81,0h18.16l7.87,41.405L130.831,0h18.16l-16.828,65.498V87.774z M168.965,0h17.555v87.774h-17.555V0z M228.409,0l4.357,16.344h-11.744v71.431h-17.918V16.344h-11.742L195.961,0H228.409z M236.397,0.121h19.492l-4.357,64.65h-11.018L236.397,0.121z M236.639,79.663
    c0,2.584,0.928,4.781,2.785,6.598c1.855,1.816,4.074,2.725,6.658,2.725c2.582,0,4.803-0.908,6.66-2.725
    c1.855-1.816,2.783-4.014,2.783-6.598c0-2.583-0.928-4.802-2.783-6.659c-1.857-1.856-4.078-2.785-6.66-2.785
    c-2.584,0-4.803,0.929-6.658,2.785C237.567,74.861,236.639,77.08,236.639,79.663z M46.43,137.252c0.779-0.12,1.649-0.104,2.61,0.045c0.959,0.15,1.845,0.405,2.655,0.765
    c0.81,0.36,1.499,0.825,2.07,1.396c0.569,0.57,0.884,1.215,0.945,1.935c0.059,0.78-0.121,1.516-0.54,2.205
    c-0.42,0.69-0.886,1.365-1.395,2.025c-0.51,0.66-0.99,1.336-1.44,2.024c-0.45,0.69-0.675,1.426-0.675,2.205
    c0,0.481,0.18,0.9,0.54,1.26c-1.381-0.299-2.475-0.914-3.285-1.845c-0.81-0.93-1.186-1.904-1.125-2.925
    c0.059-0.779,0.39-1.575,0.99-2.385c0.599-0.811,1.08-1.396,1.44-1.755h0.09c-0.301,0.24-0.63,0.48-0.99,0.72
    c-0.36,0.24-0.69,0.511-0.99,0.81c-1.26,0.121-2.4,0.511-3.42,1.17c-1.021,0.661-1.89,1.501-2.61,2.521
    c-0.72,1.021-1.276,2.16-1.665,3.42c-0.391,1.26-0.585,2.52-0.585,3.78c0,0.72,0.074,1.426,0.225,2.114
    c0.149,0.69,0.405,1.336,0.765,1.936c0.36,0.601,0.84,1.08,1.44,1.439c0.599,0.36,1.35,0.54,2.25,0.54
    c1.62,0,3.164-0.374,4.635-1.125c1.469-0.749,2.774-1.604,3.915-2.564c1.139-0.959,2.054-1.875,2.745-2.745
    c0.689-0.869,1.094-1.425,1.215-1.665c0.12-0.239,0.315-0.255,0.585-0.045c0.27,0.211,0.405,0.495,0.405,0.854v0.181
    c0-0.06-0.346,0.465-1.035,1.574c-0.69,1.111-1.696,2.326-3.015,3.646c-1.32,1.32-2.985,2.535-4.995,3.645
    c-2.011,1.11-4.306,1.665-6.885,1.665c-2.16,0-3.825-0.449-4.995-1.35s-2.039-1.92-2.61-3.06c-0.57-1.14-0.9-2.22-0.99-3.24
    c-0.09-1.02-0.135-1.649-0.135-1.891c0-2.819,0.481-5.31,1.44-7.47s2.145-3.96,3.555-5.399c1.409-1.44,2.91-2.534,4.5-3.285
    C43.654,137.627,45.109,137.252,46.43,137.252z M62.089,155.611c-0.061,0.121-0.151,0.36-0.27,0.721c-0.121,0.359-0.241,0.78-0.36,1.26
    c-0.121,0.48-0.225,0.976-0.315,1.485c-0.09,0.51-0.135,0.976-0.135,1.395c0,1.08,0.329,1.62,0.99,1.62
    c1.38,0,2.444-0.405,3.195-1.215c0.75-0.811,1.334-1.68,1.755-2.61c0.419-0.93,0.75-1.8,0.99-2.61c0.239-0.81,0.57-1.215,0.99-1.215
    c0.299,0,0.479,0.136,0.54,0.405c0.059,0.27,0.09,0.466,0.09,0.585c0,0.301-0.09,0.931-0.27,1.89c-0.18,0.961-0.81,2.221-1.89,3.78
    c-0.24,0.301-0.585,0.69-1.035,1.17c-0.45,0.479-1.005,0.945-1.665,1.396c-0.661,0.449-1.381,0.839-2.16,1.17
    c-0.78,0.329-1.62,0.495-2.52,0.495c-1.08,0-1.966-0.166-2.655-0.495c-0.689-0.331-1.229-0.751-1.62-1.26
    c-0.39-0.511-0.66-1.095-0.81-1.756c-0.149-0.659-0.225-1.318-0.225-1.979c0-1.08,0.166-2.476,0.495-4.186
    c0.331-1.71,0.735-3.539,1.215-5.489c0.481-1.949,0.99-3.96,1.53-6.03s1.049-4.02,1.53-5.85c0.479-1.83,0.885-3.435,1.215-4.815
    c0.329-1.38,0.495-2.399,0.495-3.06c0-1.02-0.121-1.904-0.36-2.655c-0.24-0.75-0.495-1.38-0.765-1.891
    c-0.27-0.509-0.51-0.884-0.72-1.125c-0.211-0.238-0.315-0.389-0.315-0.449c0-0.181,0.36-0.345,1.08-0.495
    c0.72-0.149,1.589-0.226,2.61-0.226c0.839,0,1.755,0.076,2.745,0.226c0.99,0.15,1.89,0.436,2.7,0.854
    c0.81,0.421,1.485,1.006,2.025,1.755c0.54,0.751,0.81,1.696,0.81,2.835c0,1.562-0.346,3.375-1.035,5.445
    c-0.69,2.07-1.5,4.275-2.43,6.615c-0.931,2.34-1.905,4.74-2.925,7.2C63.588,150.963,62.748,153.332,62.089,155.611z M71.808,164.071c-1.08,0-1.966-0.166-2.655-0.494c-0.689-0.331-1.215-0.751-1.575-1.261
    c-0.36-0.509-0.615-1.08-0.765-1.71c-0.149-0.63-0.225-1.244-0.225-1.845c0-1.44,0.225-2.939,0.675-4.5
    c0.45-1.56,0.945-3.135,1.485-4.725s1.035-3.164,1.485-4.726c0.45-1.56,0.675-3.09,0.675-4.59c0-0.54-0.105-0.93-0.315-1.17
    c-0.211-0.239-0.42-0.405-0.63-0.495c-0.211-0.09-0.419-0.135-0.63-0.135c-0.209,0-0.315-0.06-0.315-0.181
    c0-0.238,0.81-0.359,2.43-0.359c0.9,0,1.769,0.09,2.61,0.27c0.839,0.181,1.604,0.481,2.295,0.9c0.689,0.42,1.245,0.96,1.665,1.62
    c0.419,0.661,0.63,1.471,0.63,2.43c0,0.961-0.211,2.025-0.63,3.195c-0.42,1.17-0.931,2.416-1.53,3.734
    c-0.601,1.321-1.186,2.671-1.755,4.051c-0.571,1.381-1.035,2.79-1.395,4.229c-0.18,0.301-0.27,0.601-0.27,0.9
    c0,0.48,0.165,0.87,0.495,1.17c0.329,0.301,0.765,0.45,1.305,0.45c1.02,0,1.845-0.374,2.475-1.125
    c0.63-0.75,1.154-1.575,1.575-2.476c0.419-0.899,0.765-1.724,1.035-2.475c0.27-0.75,0.585-1.125,0.945-1.125
    c0.419,0,0.644,0.135,0.675,0.405c0.029,0.27,0.045,0.465,0.045,0.585c-0.36,1.979-0.886,3.555-1.575,4.725
    c-0.69,1.17-1.68,2.25-2.97,3.24C75.782,163.577,74.027,164.071,71.808,164.071z M79.098,126.452c0.66,0,1.319,0.135,1.98,0.404
    c0.66,0.271,0.99,0.855,0.99,1.755c0,0.781-0.195,1.696-0.585,2.745c-0.391,1.051-0.765,2.086-1.125,3.105
    c-0.121,0.301-0.54,0.751-1.26,1.35c-0.72,0.601-1.831,0.9-3.33,0.9c-0.841,0-1.44-0.12-1.8-0.36c-0.36-0.239-0.54-0.509-0.54-0.81
    c0.299-1.74,0.675-3.195,1.125-4.365c0.45-1.17,0.675-2.055,0.675-2.655c0-0.54-0.18-0.81-0.54-0.81c-0.36,0-0.54-0.06-0.54-0.181
    c0-0.119,0.525-0.329,1.575-0.63C76.771,126.603,77.896,126.452,79.098,126.452z M93.856,137.252c0.779-0.12,1.649-0.104,2.61,0.045c0.959,0.15,1.845,0.405,2.655,0.765
    c0.81,0.36,1.499,0.825,2.07,1.396c0.569,0.57,0.884,1.215,0.945,1.935c0.059,0.78-0.121,1.516-0.54,2.205
    c-0.42,0.69-0.886,1.365-1.395,2.025c-0.51,0.66-0.99,1.336-1.44,2.024c-0.45,0.69-0.675,1.426-0.675,2.205
    c0,0.481,0.18,0.9,0.54,1.26c-1.381-0.299-2.475-0.914-3.285-1.845c-0.81-0.93-1.186-1.904-1.125-2.925
    c0.059-0.779,0.39-1.575,0.99-2.385c0.599-0.811,1.08-1.396,1.44-1.755h0.09c-0.301,0.24-0.63,0.48-0.99,0.72
    c-0.36,0.24-0.69,0.511-0.99,0.81c-1.26,0.121-2.4,0.511-3.42,1.17c-1.021,0.661-1.89,1.501-2.61,2.521
    c-0.72,1.021-1.276,2.16-1.665,3.42c-0.391,1.26-0.585,2.52-0.585,3.78c0,0.72,0.074,1.426,0.225,2.114
    c0.149,0.69,0.405,1.336,0.765,1.936c0.36,0.601,0.84,1.08,1.44,1.439c0.599,0.36,1.35,0.54,2.25,0.54
    c1.62,0,3.164-0.374,4.635-1.125c1.469-0.749,2.774-1.604,3.915-2.564c1.139-0.959,2.054-1.875,2.745-2.745
    c0.689-0.869,1.094-1.425,1.215-1.665c0.12-0.239,0.315-0.255,0.585-0.045c0.27,0.211,0.405,0.495,0.405,0.854v0.181
    c0-0.06-0.346,0.465-1.035,1.574c-0.69,1.111-1.696,2.326-3.015,3.646c-1.32,1.32-2.985,2.535-4.995,3.645
    c-2.011,1.11-4.306,1.665-6.885,1.665c-2.16,0-3.825-0.449-4.995-1.35s-2.039-1.92-2.61-3.06c-0.57-1.14-0.9-2.22-0.99-3.24
    c-0.09-1.02-0.135-1.649-0.135-1.891c0-2.819,0.481-5.31,1.44-7.47s2.145-3.96,3.555-5.399c1.409-1.44,2.91-2.534,4.5-3.285
    C91.081,137.627,92.536,137.252,93.856,137.252z M108.615,153.991c-0.661,1.201-1.14,2.236-1.44,3.105c-0.301,0.87-0.45,2.025-0.45,3.465
    c0,1.021,0.239,1.755,0.72,2.205c0.479,0.45,0.72,0.734,0.72,0.855c0,0.119-0.27,0.18-0.81,0.18c-0.481,0-1.111-0.076-1.89-0.225
    c-0.78-0.151-1.53-0.392-2.25-0.721c-0.72-0.329-1.334-0.765-1.845-1.305c-0.509-0.54-0.765-1.229-0.765-2.07
    c0-0.239,0.031-0.45,0.09-0.63c0.36-1.919,0.841-4.019,1.44-6.3c0.601-2.279,1.215-4.5,1.845-6.66s1.215-4.154,1.755-5.985
    c0.54-1.829,0.959-3.284,1.26-4.364c0.36-1.56,0.644-2.895,0.855-4.005c0.209-1.11,0.315-2.085,0.315-2.926
    c0-1.679-0.331-2.938-0.99-3.779c-0.661-0.84-0.99-1.38-0.99-1.62c0-0.12,0.27-0.3,0.81-0.54c0.54-0.239,1.56-0.36,3.06-0.36
    c2.399,0,4.199,0.526,5.4,1.575c1.199,1.051,1.8,2.445,1.8,4.185c0,1.08-0.15,2.266-0.45,3.556c-0.301,1.291-0.691,2.67-1.17,4.14
    c-0.481,1.471-1.035,2.985-1.665,4.545c-0.63,1.562-1.246,3.091-1.845,4.59v-0.09l-0.09,0.18c0.239-0.72,0.704-1.514,1.395-2.385
    c0.689-0.869,1.485-1.665,2.385-2.385s1.875-1.319,2.925-1.8c1.049-0.479,2.055-0.72,3.015-0.72c1.08,0,2.039,0.211,2.88,0.63
    c0.84,0.42,1.56,0.96,2.16,1.62c0.599,0.66,1.049,1.395,1.35,2.204c0.299,0.811,0.45,1.606,0.45,2.386
    c0,1.381-0.315,2.82-0.945,4.319c-0.63,1.501-1.516,2.88-2.655,4.141c-1.141,1.26-2.536,2.311-4.185,3.149
    c-1.651,0.841-3.465,1.261-5.445,1.261h0.18h-0.09c0.36,0.841,0.945,1.68,1.755,2.52c0.81,0.841,1.769,1.62,2.88,2.34
    c1.11,0.72,2.354,1.306,3.735,1.755c1.38,0.45,2.849,0.676,4.41,0.676c1.74,0,3.51-0.166,5.31-0.495
    c1.8-0.331,3.629-0.887,5.49-1.665v0.18c0,0.059,0.014,0.119,0.045,0.18c0.029,0.06,0.045,0.149,0.045,0.271
    c0,0.479-0.121,1.17-0.359,2.069c-0.241,0.9-0.736,1.801-1.486,2.7c-0.75,0.9-1.83,1.68-3.239,2.34
    c-1.411,0.66-3.315,0.99-5.715,0.99c-1.8,0-3.555-0.375-5.265-1.125c-1.71-0.751-3.301-1.8-4.77-3.149
    c-1.471-1.351-2.776-2.94-3.915-4.771c-1.141-1.829-2.041-3.825-2.7-5.985c-0.42-0.059-0.99-0.283-1.71-0.675
    C109.246,155.177,108.795,154.652,108.615,153.991z M111.315,154.172c-0.061-0.54-0.135-0.959-0.225-1.26
    c-0.09-0.3-0.18-0.57-0.27-0.811c-0.09-0.239-0.195-0.36-0.315-0.36c-0.24,0-0.405,0.105-0.495,0.315
    c-0.09,0.211-0.135,0.376-0.135,0.495c0.059,0.24,0.149,0.48,0.27,0.72c0.12,0.181,0.27,0.36,0.45,0.54
    C110.775,153.991,111.015,154.112,111.315,154.172z M121.936,146.071c0-0.959-0.256-1.649-0.765-2.069
    c-0.51-0.419-1.186-0.63-2.025-0.63c-0.661,0-1.381,0.15-2.16,0.449c-0.78,0.302-1.53,0.706-2.25,1.216
    c-0.72,0.51-1.35,1.125-1.89,1.845c-0.54,0.72-0.9,1.53-1.08,2.43c0.059-0.059,0.18-0.09,0.36-0.09c0.419,0,0.75,0.285,0.99,0.855
    c0.239,0.57,0.45,1.185,0.63,1.845c0.18,0.661,0.329,1.26,0.45,1.8c0.12,0.54,0.239,0.81,0.36,0.81
    c0.419-0.059,1.035-0.283,1.845-0.675c0.81-0.39,1.62-0.944,2.43-1.665c0.81-0.72,1.53-1.575,2.16-2.564
    C121.621,148.637,121.936,147.452,121.936,146.071z M145.154,159.122c-0.181,0.54-0.271,1.11-0.271,1.71c0,0.899,0.24,1.561,0.721,1.979
    c0.479,0.419,0.72,0.689,0.72,0.811c0,0.119-0.271,0.18-0.81,0.18c-0.481,0-1.111-0.076-1.891-0.225
    c-0.779-0.151-1.529-0.392-2.25-0.721c-0.72-0.329-1.334-0.765-1.845-1.305c-0.509-0.54-0.765-1.229-0.765-2.07
    c0-0.239,0.031-0.45,0.09-0.63c1.08-3.659,2.131-7.394,3.15-11.205c1.021-3.81,1.935-7.349,2.744-10.62
    c0.811-3.27,1.47-6.12,1.98-8.55c0.509-2.43,0.765-4.095,0.765-4.995c0-1.62-0.315-2.849-0.944-3.689
    c-0.631-0.84-0.945-1.409-0.945-1.71c0-0.12,0.254-0.3,0.765-0.54c0.509-0.239,1.544-0.36,3.104-0.36
    c2.701,0,4.546,0.646,5.535,1.935c0.99,1.291,1.485,2.986,1.485,5.086c0,1.8-0.211,3.721-0.63,5.76
    c-0.42,2.04-0.961,4.065-1.62,6.075c-0.661,2.011-1.365,3.975-2.114,5.895c-0.752,1.921-1.456,3.66-2.115,5.22
    c0.599-1.379,1.35-2.624,2.25-3.734c0.9-1.109,1.8-2.039,2.699-2.79c0.9-0.75,1.725-1.351,2.476-1.8
    c0.749-0.45,1.274-0.705,1.575-0.766c0.539-0.18,1.139-0.27,1.8-0.27c1.199,0,2.354,0.346,3.465,1.035
    c1.109,0.69,1.665,1.875,1.665,3.555c0,0.121-0.016,0.256-0.045,0.405c-0.031,0.15-0.045,0.285-0.045,0.404
    c-0.061,0.421-0.285,1.201-0.676,2.34c-0.391,1.141-0.81,2.476-1.26,4.006c-0.449,1.529-0.854,3.194-1.215,4.994
    c-0.359,1.801-0.539,3.601-0.539,5.4c0,1.381,0.148,2.626,0.449,3.735c0.3,1.109,0.869,1.994,1.71,2.654
    c0.181,0.239-0.285,0.525-1.396,0.855c-1.11,0.329-2.355,0.495-3.734,0.495c-1.681,0-3.001-0.437-3.96-1.306
    c-0.96-0.87-1.44-2.085-1.44-3.645c0-0.84,0.12-1.649,0.36-2.43c1.319-4.979,2.444-8.654,3.375-11.025
    c0.93-2.369,1.396-3.974,1.396-4.814c0-0.48-0.076-0.779-0.226-0.9c-0.15-0.119-0.346-0.21-0.585-0.271
    c-1.141,0-2.416,0.616-3.824,1.846c-1.411,1.23-2.746,2.7-4.006,4.41s-2.371,3.45-3.33,5.22
    C145.993,156.527,145.393,157.982,145.154,159.122z M172.333,164.252c-1.562-0.061-2.791-0.481-3.691-1.261c-0.899-0.778-1.588-1.664-2.069-2.654
    c-0.479-0.99-0.794-1.98-0.944-2.971c-0.15-0.989-0.226-1.784-0.226-2.385c0-3.119,0.526-5.805,1.575-8.055s2.34-4.109,3.869-5.58
    c1.531-1.47,3.135-2.55,4.815-3.24c1.679-0.688,3.119-1.035,4.32-1.035c1.8,0,3.404,0.661,4.815,1.98
    c1.408,1.32,2.114,3.06,2.114,5.22c0,1.562-0.346,2.97-1.034,4.23c-0.691,1.26-1.592,2.325-2.701,3.194
    c-1.11,0.871-2.355,1.53-3.734,1.98c-1.381,0.45-2.79,0.675-4.23,0.675c-1.26,0-2.43-0.18-3.51-0.54
    c-0.18,0.481-0.33,0.977-0.449,1.485c-0.121,0.511-0.181,1.005-0.181,1.484c0,1.201,0.315,2.266,0.944,3.195
    c0.631,0.931,1.695,1.396,3.195,1.396c1.801,0,3.495-0.479,5.086-1.44c1.588-0.959,2.999-2.084,4.229-3.375
    c1.229-1.289,2.22-2.565,2.97-3.825s1.184-2.189,1.305-2.79l0.09-0.09c0.12-0.119,0.271-0.18,0.451-0.18
    c0.18,0.061,0.359,0.135,0.539,0.225c0.181,0.09,0.3,0.315,0.36,0.675v0.271c-0.661,1.921-1.575,3.705-2.745,5.354
    c-1.17,1.651-2.535,3.076-4.095,4.275c-1.562,1.201-3.285,2.131-5.175,2.79C176.336,163.921,174.372,164.252,172.333,164.252z
     M178.542,144.002c-0.539,0.061-1.156,0.404-1.845,1.035c-0.69,0.63-1.351,1.365-1.979,2.204c-0.631,0.842-1.156,1.681-1.576,2.521
    c-0.42,0.841-0.629,1.5-0.629,1.979c0,0.121,0.18,0.226,0.539,0.315c0.36,0.09,0.779,0.135,1.261,0.135
    c0.599,0,1.319-0.09,2.159-0.27c0.84-0.181,1.635-0.495,2.386-0.945c0.749-0.45,1.396-1.064,1.935-1.845
    c0.541-0.779,0.811-1.8,0.811-3.061c0-0.959-0.301-1.619-0.9-1.979S179.381,143.702,178.542,144.002z M192.132,145.352c-1.261,3.24-2.295,5.775-3.104,7.605c-0.811,1.831-1.366,2.745-1.666,2.745
    c-0.659,0-0.99-0.21-0.99-0.631c0.721-1.919,1.275-3.523,1.666-4.814c0.389-1.29,0.749-2.565,1.08-3.825
    c0.328-1.26,0.494-2.189,0.494-2.79c0-0.119-0.016-0.194-0.045-0.225c-0.031-0.03-0.045-0.075-0.045-0.136
    c-0.72-0.659-1.395-1.665-2.025-3.015c-0.629-1.35-0.944-2.534-0.944-3.555c0-1.08,0.15-1.994,0.45-2.745
    c0.301-0.75,0.675-1.38,1.125-1.89c0.449-0.51,0.93-0.869,1.439-1.08c0.51-0.21,0.975-0.315,1.396-0.315
    c0.778,0,1.409,0.271,1.89,0.81c0.48,0.54,0.855,1.156,1.125,1.846c0.27,0.69,0.45,1.381,0.54,2.069
    c0.091,0.69,0.136,1.186,0.136,1.485c0,0.18-0.016,0.63-0.045,1.35c-0.031,0.721-0.136,1.08-0.315,1.08
    c-0.121,0-0.302-0.059-0.54-0.18c-0.18-0.119-0.375-0.225-0.585-0.314c-0.211-0.091-0.466-0.255-0.765-0.495
    c0.238,0.42,0.568,0.78,0.989,1.08c0.36,0.301,0.854,0.555,1.485,0.765c0.63,0.211,1.424,0.314,2.385,0.314
    c0.3,0,0.615-0.014,0.945-0.045c0.328-0.029,0.645-0.045,0.945-0.045c1.738,0,3.314,0.392,4.725,1.17
    c1.408,0.781,2.115,2.041,2.115,3.78c0,0.9-0.18,1.8-0.541,2.7c-0.359,0.9-0.795,1.876-1.305,2.925
    c-0.51,1.051-1.021,2.191-1.529,3.42c-0.511,1.23-0.916,2.596-1.215,4.095c0,0.121-0.016,0.257-0.045,0.405
    c-0.031,0.15-0.045,0.286-0.045,0.405c0,0.661,0.119,1.096,0.359,1.305c0.238,0.211,0.689,0.315,1.35,0.315
    c1.02,0,1.814-0.39,2.385-1.17c0.57-0.779,1.02-1.649,1.351-2.61c0.329-0.959,0.63-1.829,0.899-2.61
    c0.271-0.778,0.586-1.17,0.945-1.17c0.3,0,0.48,0.136,0.54,0.405c0.06,0.271,0.091,0.466,0.091,0.585c0,0.36-0.105,0.931-0.315,1.71
    c-0.211,0.78-0.825,2.102-1.845,3.96c-0.181,0.301-0.466,0.69-0.855,1.17c-0.391,0.481-0.886,0.945-1.484,1.396
    c-0.602,0.45-1.306,0.824-2.115,1.125c-0.811,0.299-1.756,0.45-2.836,0.45c-2.22,0-3.689-0.526-4.41-1.575
    c-0.719-1.049-1.079-2.265-1.079-3.646c0-1.919,0.36-3.884,1.079-5.895c0.721-2.01,1.441-4.035,2.16-6.075
    c0-0.239-0.195-0.464-0.584-0.675c-0.392-0.21-0.855-0.39-1.396-0.54c-0.54-0.149-1.095-0.271-1.665-0.36s-1.035-0.135-1.395-0.135
    c-0.061,0-0.105,0.016-0.135,0.045c-0.031,0.031-0.076,0.045-0.136,0.045H192.132z M190.782,135.361c0,0.36,0.075,0.721,0.226,1.08
    c0.149,0.36,0.345,0.69,0.585,0.99c0-0.599-0.045-1.274-0.135-2.025c-0.09-0.749-0.225-1.154-0.405-1.215
    c-0.121,0-0.195,0.136-0.226,0.405S190.782,135.123,190.782,135.361z M214.542,164.252c-1.561-0.061-2.79-0.481-3.69-1.261c-0.899-0.778-1.589-1.664-2.069-2.654
    s-0.795-1.98-0.945-2.971c-0.149-0.989-0.225-1.784-0.225-2.385c0-3.119,0.525-5.805,1.574-8.055s2.34-4.109,3.87-5.58
    c1.53-1.47,3.135-2.55,4.815-3.24c1.679-0.688,3.119-1.035,4.32-1.035c1.799,0,3.404,0.661,4.814,1.98
    c1.409,1.32,2.115,3.06,2.115,5.22c0,1.562-0.346,2.97-1.035,4.23c-0.69,1.26-1.591,2.325-2.7,3.194
    c-1.11,0.871-2.355,1.53-3.735,1.98c-1.381,0.45-2.789,0.675-4.229,0.675c-1.261,0-2.431-0.18-3.511-0.54
    c-0.18,0.481-0.33,0.977-0.449,1.485c-0.121,0.511-0.18,1.005-0.18,1.484c0,1.201,0.314,2.266,0.944,3.195
    c0.63,0.931,1.694,1.396,3.195,1.396c1.8,0,3.495-0.479,5.085-1.44c1.589-0.959,3-2.084,4.23-3.375
    c1.229-1.289,2.219-2.565,2.969-3.825s1.185-2.189,1.306-2.79l0.09-0.09c0.12-0.119,0.271-0.18,0.45-0.18
    c0.18,0.061,0.359,0.135,0.54,0.225s0.3,0.315,0.36,0.675v0.271c-0.661,1.921-1.575,3.705-2.746,5.354
    c-1.17,1.651-2.535,3.076-4.094,4.275c-1.562,1.201-3.285,2.131-5.176,2.79C218.546,163.921,216.581,164.252,214.542,164.252z
     M220.751,144.002c-0.54,0.061-1.156,0.404-1.845,1.035c-0.691,0.63-1.351,1.365-1.98,2.204c-0.63,0.842-1.156,1.681-1.575,2.521
    c-0.421,0.841-0.63,1.5-0.63,1.979c0,0.121,0.18,0.226,0.54,0.315s0.779,0.135,1.261,0.135c0.598,0,1.318-0.09,2.159-0.27
    c0.84-0.181,1.634-0.495,2.386-0.945c0.749-0.45,1.395-1.064,1.935-1.845c0.54-0.779,0.81-1.8,0.81-3.061
    c0-0.959-0.301-1.619-0.9-1.979S221.59,143.702,220.751,144.002z"/>
</svg>